<?xml version="1.0" standalone="no"?>
<!DOCTYPE svg PUBLIC "-//W3C//DTD SVG 20010904//EN"
 "http://www.w3.org/TR/2001/REC-SVG-20010904/DTD/svg10.dtd">
<svg version="1.0" xmlns="http://www.w3.org/2000/svg"
 width="988.000000pt" height="641.000000pt" viewBox="0 0 988.000000 641.000000"
 preserveAspectRatio="xMidYMid meet">

<g transform="translate(0.000000,641.000000) scale(0.100000,-0.100000)"
fill="#000000" stroke="none">
<path d="M4006 6309 c-188 -38 -407 -222 -511 -428 -78 -156 -66 -340 35 -512
59 -100 107 -156 315 -369 105 -108 199 -213 209 -233 16 -35 16 -40 2 -62
-21 -33 -57 -40 -94 -21 -16 8 -215 207 -442 441 -227 234 -415 425 -419 425
-4 0 -30 -66 -58 -147 l-51 -147 203 -211 c522 -540 552 -566 673 -601 108
-32 218 12 342 136 96 96 134 167 133 249 -2 124 -46 190 -323 481 -119 124
-228 247 -243 272 -38 65 -61 160 -52 217 16 105 90 207 183 252 37 18 64 23
127 23 92 0 158 -26 234 -90 23 -20 344 -346 712 -725 409 -421 695 -706 734
-734 124 -89 219 -104 324 -50 l51 25 0 361 0 361 -146 154 c-81 84 -158 170
-172 191 -43 62 -62 127 -62 207 0 174 133 309 307 310 l73 1 0 118 0 117 -41
0 c-141 0 -362 -139 -490 -309 -149 -195 -169 -387 -63 -596 53 -104 97 -158
324 -395 114 -118 212 -225 218 -237 45 -84 -41 -138 -119 -75 -33 26 -169
165 -982 1007 -372 385 -463 469 -568 525 -123 65 -256 91 -363 69z"/>
<path d="M5924 6034 c-105 -38 -178 -147 -178 -264 0 -117 31 -165 272 -417
299 -312 333 -363 340 -506 6 -108 -22 -162 -142 -283 -116 -116 -195 -158
-296 -158 -58 0 -79 5 -141 37 -41 20 -101 60 -134 89 -33 29 -310 311 -615
626 -760 784 -811 834 -883 860 -113 42 -225 22 -302 -54 -60 -60 -89 -138
-82 -222 8 -109 38 -153 256 -380 239 -248 272 -288 317 -377 43 -88 53 -160
30 -236 -30 -103 -159 -243 -290 -316 -45 -25 -61 -28 -136 -28 -161 0 -215
40 -656 498 -163 169 -299 307 -303 307 -3 0 -26 -56 -50 -125 l-43 -125 228
-236 c416 -429 448 -461 514 -509 136 -99 245 -139 375 -139 156 1 300 70 444
213 139 138 202 259 209 401 5 108 -9 177 -57 277 -56 114 -107 178 -328 407
-109 114 -206 222 -217 241 -23 44 -15 81 20 97 22 10 32 9 62 -7 20 -11 272
-263 560 -560 823 -849 861 -886 955 -949 131 -87 199 -109 332 -110 96 0 118
3 179 27 102 40 193 106 295 212 71 75 99 114 131 179 77 158 75 310 -5 472
-53 108 -106 174 -322 400 -109 113 -206 218 -215 233 -42 63 -5 135 57 111
41 -16 51 -25 430 -415 192 -198 353 -360 356 -360 4 0 46 38 94 84 l86 84
-218 221 c-120 122 -313 318 -428 436 -174 177 -221 220 -270 244 -73 35 -168
44 -231 20z"/>
<path d="M1619 3640 c-122 -19 -231 -75 -284 -145 -81 -105 -86 -266 -13 -365
50 -69 140 -110 354 -165 201 -51 239 -74 239 -147 0 -82 -101 -127 -257 -115
-85 7 -209 44 -276 84 -24 14 -47 21 -52 17 -17 -20 -81 -175 -75 -184 12 -19
123 -69 202 -92 107 -31 367 -33 453 -4 157 53 248 158 258 297 9 129 -48 222
-171 280 -34 15 -132 46 -219 68 -172 44 -206 57 -238 98 -44 56 0 138 87 162
93 26 242 8 360 -45 31 -13 57 -23 58 -22 13 15 74 182 69 190 -11 17 -105 54
-182 72 -91 20 -238 28 -313 16z"/>
<path d="M2350 3075 l0 -555 130 0 130 0 0 555 0 555 -130 0 -130 0 0 -555z"/>
<path d="M2870 3075 l0 -555 120 0 120 0 0 321 c0 176 4 318 8 315 5 -3 80
-122 167 -266 l158 -260 56 0 57 0 164 277 165 278 3 -333 2 -332 120 0 120 0
0 555 0 555 -107 0 -108 0 -205 -346 c-183 -311 -205 -344 -218 -327 -7 10
-102 165 -210 345 l-197 328 -107 0 -108 0 0 -555z"/>
<path d="M4400 3075 l0 -555 348 0 c271 0 361 4 410 15 171 41 255 136 255
290 0 113 -54 201 -156 252 l-37 19 45 37 c55 46 85 102 92 172 17 160 -87
277 -276 311 -52 9 -170 13 -378 14 l-303 0 0 -555z m621 343 c101 -44 108
-176 12 -224 -32 -16 -66 -20 -210 -22 l-173 -4 0 137 0 137 168 -4 c121 -3
177 -9 203 -20z m54 -454 c21 -10 48 -32 59 -47 28 -38 28 -106 0 -144 -39
-53 -61 -58 -281 -61 l-203 -3 0 134 c0 73 3 137 8 141 4 5 90 6 192 4 158 -4
192 -7 225 -24z"/>
<path d="M5610 3262 c0 -398 3 -430 56 -533 53 -107 173 -193 303 -220 73 -15
270 -6 338 15 122 39 233 148 278 276 18 50 20 89 23 443 l3 387 -125 0 -125
0 -3 -368 -3 -368 -30 -59 c-25 -47 -40 -63 -84 -88 -47 -27 -64 -31 -130 -31
-88 1 -139 22 -189 78 -53 61 -56 80 -59 474 l-4 362 -125 0 -124 0 0 -368z"/>
<path d="M6870 3075 l0 -555 410 0 410 0 0 100 0 100 -280 0 -280 0 0 455 0
455 -130 0 -130 0 0 -555z"/>
<path d="M8171 3588 c-10 -24 -120 -271 -245 -550 -124 -279 -226 -510 -226
-513 0 -3 58 -5 129 -5 l129 0 47 115 48 115 261 0 262 0 43 -107 c24 -60 47
-112 51 -116 4 -4 65 -6 137 -5 l130 3 -246 550 -246 550 -128 3 -127 3 -19
-43z m240 -440 c43 -106 79 -193 79 -195 0 -2 -79 -3 -175 -3 -96 0 -175 2
-175 4 0 2 34 87 76 188 42 100 80 194 86 208 12 32 9 38 109 -202z"/>
<path d="M2656 2061 c-89 -36 -145 -113 -146 -198 0 -117 60 -165 275 -223
174 -46 215 -76 215 -158 0 -93 -111 -153 -254 -137 -72 8 -145 34 -190 69
l-33 25 -16 -35 -17 -34 38 -25 c130 -86 348 -96 460 -22 62 42 92 96 92 167
0 115 -60 165 -262 220 -144 39 -167 49 -202 90 -45 55 -26 140 42 182 72 44
261 34 337 -18 26 -18 32 -18 38 4 2 9 8 24 11 33 5 12 -8 22 -56 44 -55 25
-78 29 -173 32 -92 3 -118 0 -159 -16z"/>
<path d="M3506 2071 c-3 -5 -86 -185 -185 -400 l-179 -391 43 0 42 0 48 105
48 105 226 0 226 0 45 -105 45 -105 44 0 c30 0 42 4 38 13 -2 6 -85 186 -182
400 l-178 387 -38 0 c-21 0 -40 -4 -43 -9z m140 -298 l93 -208 -186 -3 c-102
-1 -188 0 -191 2 -2 3 38 100 89 215 52 115 96 208 98 205 2 -2 46 -97 97
-211z"/>
<path d="M4090 1680 l0 -400 40 0 40 0 0 170 0 170 210 0 210 0 0 35 0 35
-210 0 -210 0 0 160 0 160 236 0 235 0 -3 33 -3 32 -272 3 -273 2 0 -400z"/>
<path d="M4835 1688 c-98 -216 -180 -396 -182 -400 -2 -5 15 -8 39 -8 l43 0
45 103 46 102 227 0 228 0 46 -102 46 -103 44 0 c24 0 42 3 40 8 -3 4 -78 166
-166 360 -214 470 -193 432 -239 432 l-38 0 -179 -392z m315 89 c51 -114 91
-210 88 -212 -3 -3 -89 -4 -191 -3 l-186 3 88 195 c48 107 90 204 94 214 4 10
9 17 11 15 2 -2 45 -97 96 -212z"/>
<path d="M5598 2074 c-5 -4 -8 -184 -8 -401 l0 -393 45 0 45 0 0 125 0 125
125 2 c69 1 131 2 139 2 8 1 56 -56 106 -126 l91 -128 46 0 45 0 -24 33 c-52
69 -168 235 -168 240 0 2 10 7 23 11 35 8 105 73 130 120 17 33 22 57 21 121
0 95 -21 144 -85 198 -69 60 -110 69 -329 74 -107 3 -198 2 -202 -3z m417 -88
c71 -30 107 -76 120 -152 14 -87 -35 -175 -118 -210 -32 -13 -78 -19 -189 -22
l-148 -4 0 207 0 207 148 -4 c108 -4 157 -9 187 -22z"/>
<path d="M6420 1680 l0 -400 40 0 40 0 0 400 0 400 -40 0 -40 0 0 -400z"/>
<path d="M6856 2061 c-89 -36 -145 -113 -146 -198 0 -117 60 -165 275 -223
174 -46 215 -76 215 -158 0 -93 -111 -153 -254 -137 -72 8 -145 34 -190 69
l-33 25 -16 -35 -17 -34 38 -25 c130 -86 348 -96 460 -22 62 42 92 96 92 167
0 115 -61 167 -262 220 -142 37 -166 48 -202 90 -45 55 -26 140 42 182 72 44
261 34 337 -18 26 -18 32 -18 38 4 2 9 8 24 11 33 5 12 -8 22 -56 44 -55 25
-78 29 -173 32 -92 3 -118 0 -159 -16z"/>
</g>
</svg>
